<svg id="Flat" enable-background="new 0 0 512 512" height="512" viewBox="0 0 512 512" width="512" xmlns="http://www.w3.org/2000/svg"><g><g><path d="m392 294.587c0-8.679-3.748-16.812-10.083-22.436l-77.917-48.151h-96l-85.917 48.151c-6.335 5.624-10.083 13.757-10.083 22.436v192.951h280z" fill="#ff7b85"/></g><g><path d="m400 168-31.679 168.699c-2.019 11.206 5.712 21.834 16.996 23.364l22.022 2.986c11.283 1.53 21.566-6.655 22.604-17.994l2.057-169.055z" fill="#ffbeb5"/><path d="m431.709 199.883.291-23.883-32-8-4.267 22.723c.815.244 1.766 1.609 2.772 3.657 6.277 12.788 23.218 15.661 33.204 5.503z" fill="#e6aca3"/><path d="m440.622 128.324-11.891-1.613 6.45-47.565c1.188-8.756-4.948-16.818-13.705-18.005-8.756-1.187-16.817 4.948-18.005 13.705l-11.288 83.238c-1.484 10.945 6.186 21.022 17.131 22.506l23.782 3.225c10.945 1.484 21.022-6.186 22.506-17.131l2.15-15.855c1.486-10.944-6.184-21.021-17.13-22.505z" fill="#ffbeb5"/></g><g><g><path d="m120 368h36c11.046 0 20 8.954 20 20v12h-56z" fill="#e6aca3"/></g><g><path d="m144 400h-80l3.177-15.883c2.804-14.023 15.117-24.117 29.417-24.117h14.812c14.3 0 26.613 10.094 29.417 24.117z" fill="#ffbeb5"/></g><g><g><g><g><path d="m232 184-24 40 16.084 21.29c16.004 21.185 47.828 21.185 63.832 0l16.084-21.29-24-40z" fill="#ffbeb5"/></g></g></g><g><path d="m280 184h-48l-14.4 24c22.244 18.537 54.556 18.537 76.8 0z" fill="#e6aca3"/></g><g><g><g><path d="m304 162c0 16.569-13.431 30-30 30h-36c-16.569 0-30-13.431-30-30v-76c0-16.569 13.431-30 30-30h36c16.569 0 30 13.431 30 30z" fill="#ffbeb5"/></g></g></g><g><path d="m344 128h-16v-24c0-39.701-32.299-72-72-72-10.015 0-19.704 2.015-28.797 5.988l-6.406-14.662c11.126-4.861 22.97-7.326 35.203-7.326 48.523 0 88 39.477 88 88z" fill="#ce9ee0"/></g><g><path d="m184 128h-16v-24c0-27.937 12.825-53.595 35.187-70.396l9.611 12.792c-18.302 13.75-28.798 34.746-28.798 57.604z" fill="#ce9ee0"/></g><path d="m208 88 32 24 16-16 16 16 32-16v-10c0-16.569-13.431-30-30-30h-36c-16.569 0-30 13.431-30 30z" fill="#ffe68c"/><g fill="#fff3f4"><path d="m184 320v16h32v-16h-8v-96l-16 8.967v87.033z"/><path d="m296 320v16h32v-16h-8v-86.112l-16-9.888v96z"/></g><g fill="#e191ff"><path d="m200 152h-22c-5.523 0-10-4.477-10-10v-28c0-5.523 4.477-10 10-10h22z"/><path d="m334 152h-22v-48h22c5.523 0 10 4.477 10 10v28c0 5.523-4.477 10-10 10z"/></g></g></g><g><g><path d="m248 408h16v24h-16z" fill="#ffe68c"/></g><g><path d="m288 408h16v24h-16z" fill="#ffe68c"/></g><g><path d="m328 408h16v24h-16z" fill="#ffe68c"/></g><g><g><path d="m208 432h-176l4.213-16.851c2.226-8.903 10.225-15.149 19.403-15.149h128.769c9.177 0 17.177 6.246 19.403 15.149z" fill="#ffe68c"/></g></g><path d="m444 400c-11.046 0-20 8.954-20 20 0-11.046-8.954-20-20-20h-28v32h96v-32z" fill="#ffe68c"/><g><path d="m24 486v-52c0-5.523 4.477-10 10-10h444c5.523 0 10 4.477 10 10v52c0 5.523-4.477 10-10 10h-444c-5.523 0-10-4.477-10-10z" fill="#e191ff"/></g><g><g><path d="m48 456h16v16h-16z" fill="#fefcff"/></g><g><path d="m144 456h16v16h-16z" fill="#fefcff"/></g><g><path d="m80 456h48v16h-48z" fill="#fefcff"/></g></g><g><g><path d="m352 456h16v16h-16z" fill="#fefcff"/></g><g><path d="m448 456h16v16h-16z" fill="#fefcff"/></g><g><path d="m384 456h48v16h-48z" fill="#fefcff"/></g></g><g><path d="m212 456c-11.046 0-20-8.954-20-20v-12h128v12c0 11.046-8.954 20-20 20z" fill="#fefcff"/></g></g><path d="m100.854 156.896.634-.527-15.334-18.463 30.771-25.556-10.223-12.309-30.771 25.556-10.221-12.308 30.77-25.557-10.222-12.308-36.925 30.667c-3.398 2.823-3.866 7.867-1.043 11.266l31.024 37.355c-1.384.752-2.731 1.659-4.01 2.721-8.497 7.057-10.809 18.289-5.163 25.087s17.111 6.588 25.608-.47c8.497-7.057 10.809-18.289 5.163-25.087-.019-.022-.039-.045-.058-.067z" fill="#ffe68c"/></g></svg>